<?xml version="1.0" encoding="iso-8859-1"?>
<!-- Uploaded to: SVG Repo, www.svgrepo.com, Generator: SVG Repo Mixer Tools -->
<!DOCTYPE svg PUBLIC "-//W3C//DTD SVG 1.1//EN" "http://www.w3.org/Graphics/SVG/1.1/DTD/svg11.dtd">
<svg fill="#000000" version="1.1" id="Capa_1" xmlns="http://www.w3.org/2000/svg" xmlns:xlink="http://www.w3.org/1999/xlink" 
	 width="800px" height="800px" viewBox="0 0 187.035 187.034"
	 xml:space="preserve">
<g>
	<path d="M187.035,67.531c0,5.724-0.926,11.502-2.765,17.135c-8.756,39.567-84.262,87.355-87.474,89.377
		c-0.989,0.627-2.144,0.949-3.279,0.949s-2.29-0.334-3.279-0.949c-3.224-1.991-78.745-49.81-87.681-89.958
		C0.929,79.152,0,73.368,0,67.531c0-20.234,10.994-38.864,28.708-48.634c17.278-9.542,39.028-8.917,55.521,1.06
		c2.923,1.739,3.852,5.542,2.077,8.449c-1.742,2.923-5.575,3.791-8.452,2.083c-12.769-7.675-29.728-8.168-43.19-0.78
		c-13.755,7.587-22.305,22.067-22.305,37.811c0,4.545,0.682,9.033,2.11,13.28c6.321,28.278,56.398,65.916,79.074,80.694
		c22.651-14.778,72.723-52.386,78.867-80.094c1.595-4.978,2.313-9.466,2.313-13.893c0-15.747-8.549-30.236-22.348-37.851
		c-13.798-7.526-30.799-6.981-44,1.422c-2.861,1.708-6.674,0.962-8.524-1.899c-1.8-2.862-0.953-6.686,1.912-8.525
		c16.854-10.781,38.788-11.505,56.544-1.802C176.013,28.667,187.035,47.297,187.035,67.531z M160.839,80.2
		c0.328,0.131,0.633,0.152,0.962,0.152c1.297,0,2.484-0.818,2.923-2.109c1.169-3.522,1.741-7.146,1.741-10.723
		c0-12.739-6.924-24.481-18.061-30.592c-5.212-2.923-10.899-4.396-16.928-4.396c-1.705,0-3.069,1.355-3.069,3.069
		s1.364,3.075,3.069,3.075c4.938,0,9.633,1.221,13.944,3.641c9.183,5.063,14.906,14.714,14.906,25.203
		c0,2.953-0.487,5.891-1.438,8.792C158.331,77.95,159.213,79.691,160.839,80.2z"/>
</g>
</svg>